<svg xmlns="http://www.w3.org/2000/svg" viewBox="0 0 32 32">
  <defs>
    <linearGradient id="sky" x1="0" y1="0" x2="0" y2="1">
      <stop offset="0" stop-color="#1B3C4D"/>
      <stop offset="1" stop-color="#0F2330"/>
    </linearGradient>
  </defs>
  <rect width="32" height="32" rx="7" fill="url(#sky)"/>
  <!-- funnel -->
  <rect x="13.1" y="8" width="2.8" height="4.8" rx="0.6" fill="#E8B04B"/>
  <!-- cabin -->
  <path d="M9.5 17v-4.6h8.2l2.8 2.6V17z" fill="#E8B04B"/>
  <!-- hull -->
  <path d="M5.5 17h21l-2.4 5.6a1.7 1.7 0 0 1-1.6 1.05H9.5a1.7 1.7 0 0 1-1.6-1.05L5.5 17z" fill="#E8B04B"/>
  <!-- portholes -->
  <circle cx="12" cy="14.8" r="0.95" fill="#14303F"/>
  <circle cx="15.4" cy="14.8" r="0.95" fill="#14303F"/>
  <!-- waterline -->
  <path d="M4.5 25.7c1.5 0 1.5 1.1 3 1.1s1.5-1.1 3-1.1 1.5 1.1 3 1.1 1.5-1.1 3-1.1 1.5 1.1 3 1.1 1.5-1.1 3-1.1" fill="none" stroke="#5FB0C4" stroke-width="1.5" stroke-linecap="round"/>
</svg>
